<?xml version="1.0" encoding="UTF-8" standalone="no"?>
<!DOCTYPE svg PUBLIC "-//W3C//DTD SVG 1.1//EN"
 "http://www.w3.org/Graphics/SVG/1.1/DTD/svg11.dtd">
<!-- Generated by graphviz version 2.38.0 (20140413.2041)
 -->
<!-- Title: G Pages: 1 -->
<svg width="531pt" height="292pt"
 viewBox="0.00 0.00 530.61 292.00" xmlns="http://www.w3.org/2000/svg" xmlns:xlink="http://www.w3.org/1999/xlink">
<g id="graph0" class="graph" transform="scale(1 1) rotate(0) translate(4 288)">
<title>G</title>
<polygon fill="white" stroke="none" points="-4,4 -4,-288 526.614,-288 526.614,4 -4,4"/>
<g id="clust1" class="cluster"><title>cluster_0</title>
<polygon fill="none" stroke="black" points="83,-8 83,-276 135,-276 135,-8 83,-8"/>
</g>
<g id="clust2" class="cluster"><title>cluster_1</title>
<polygon fill="none" stroke="black" points="184.538,-62 184.538,-222 236.538,-222 236.538,-62 184.538,-62"/>
</g>
<g id="clust3" class="cluster"><title>cluster_2</title>
<polygon fill="none" stroke="black" points="286.076,-62 286.076,-222 338.076,-222 338.076,-62 286.076,-62"/>
</g>
<g id="clust4" class="cluster"><title>cluster_3</title>
<polygon fill="none" stroke="black" points="387.614,-62 387.614,-222 439.614,-222 439.614,-62 387.614,-62"/>
</g>
<!-- x1 -->
<g id="node1" class="node"><title>x1</title>
<ellipse fill="none" stroke="black" cx="109" cy="-250" rx="18" ry="18"/>
</g>
<!-- x2 -->
<g id="node2" class="node"><title>x2</title>
<ellipse fill="none" stroke="black" cx="109" cy="-196" rx="18" ry="18"/>
</g>
<!-- x3 -->
<g id="node3" class="node"><title>x3</title>
<ellipse fill="none" stroke="black" cx="109" cy="-142" rx="18" ry="18"/>
</g>
<!-- u1_2 -->
<g id="node7" class="node"><title>u1_2</title>
<ellipse fill="none" stroke="black" cx="210.538" cy="-142" rx="18" ry="18"/>
</g>
<!-- x3&#45;&gt;u1_2 -->
<g id="edge2" class="edge"><title>x3&#45;&gt;u1_2</title>
<path fill="none" stroke="black" d="M134.904,-142C149.294,-142 167.417,-142 182.201,-142"/>
<polygon fill="black" stroke="black" points="174.538,-145.5 184.538,-142 174.538,-138.5 174.538,-145.5"/>
<text text-anchor="middle" x="159.769" y="-144.8" font-family="Times,serif" font-size="14.00">W(1)</text>
</g>
<!-- x4 -->
<g id="node4" class="node"><title>x4</title>
<ellipse fill="none" stroke="black" cx="109" cy="-88" rx="18" ry="18"/>
</g>
<!-- x5 -->
<g id="node5" class="node"><title>x5</title>
<ellipse fill="none" stroke="black" cx="109" cy="-34" rx="18" ry="18"/>
</g>
<!-- u1_1 -->
<g id="node6" class="node"><title>u1_1</title>
<ellipse fill="none" stroke="black" cx="210.538" cy="-196" rx="18" ry="18"/>
</g>
<!-- u2_2 -->
<g id="node10" class="node"><title>u2_2</title>
<ellipse fill="none" stroke="black" cx="312.076" cy="-142" rx="18" ry="18"/>
</g>
<!-- u1_2&#45;&gt;u2_2 -->
<g id="edge3" class="edge"><title>u1_2&#45;&gt;u2_2</title>
<path fill="none" stroke="black" d="M236.442,-142C250.832,-142 268.955,-142 283.739,-142"/>
<polygon fill="black" stroke="black" points="276.076,-145.5 286.076,-142 276.076,-138.5 276.076,-145.5"/>
<text text-anchor="middle" x="261.307" y="-144.8" font-family="Times,serif" font-size="14.00">W(2)</text>
</g>
<!-- u1_3 -->
<g id="node8" class="node"><title>u1_3</title>
<ellipse fill="none" stroke="black" cx="210.538" cy="-88" rx="18" ry="18"/>
</g>
<!-- u2_1 -->
<g id="node9" class="node"><title>u2_1</title>
<ellipse fill="none" stroke="black" cx="312.076" cy="-196" rx="18" ry="18"/>
</g>
<!-- u3_2 -->
<g id="node13" class="node"><title>u3_2</title>
<ellipse fill="none" stroke="black" cx="413.614" cy="-142" rx="18" ry="18"/>
</g>
<!-- u2_2&#45;&gt;u3_2 -->
<g id="edge4" class="edge"><title>u2_2&#45;&gt;u3_2</title>
<path fill="none" stroke="black" d="M337.98,-142C352.37,-142 370.493,-142 385.277,-142"/>
<polygon fill="black" stroke="black" points="377.614,-145.5 387.614,-142 377.614,-138.5 377.614,-145.5"/>
<text text-anchor="middle" x="362.845" y="-144.8" font-family="Times,serif" font-size="14.00">W(3)</text>
</g>
<!-- u2_3 -->
<g id="node11" class="node"><title>u2_3</title>
<ellipse fill="none" stroke="black" cx="312.076" cy="-88" rx="18" ry="18"/>
</g>
<!-- u3_1 -->
<g id="node12" class="node"><title>u3_1</title>
<ellipse fill="none" stroke="black" cx="413.614" cy="-196" rx="18" ry="18"/>
</g>
<!-- o -->
<g id="node16" class="node"><title>o</title>
<text text-anchor="middle" x="495.614" y="-137.8" font-family="Times,serif" font-size="14.00">output</text>
</g>
<!-- u3_2&#45;&gt;o -->
<g id="edge5" class="edge"><title>u3_2&#45;&gt;o</title>
<path fill="none" stroke="black" d="M439.268,-142C445.298,-142 451.878,-142 458.327,-142"/>
<polygon fill="black" stroke="black" points="458.468,-145.5 468.468,-142 458.468,-138.5 458.468,-145.5"/>
</g>
<!-- u3_3 -->
<g id="node14" class="node"><title>u3_3</title>
<ellipse fill="none" stroke="black" cx="413.614" cy="-88" rx="18" ry="18"/>
</g>
<!-- i -->
<g id="node15" class="node"><title>i</title>
<text text-anchor="middle" x="27" y="-137.8" font-family="Times,serif" font-size="14.00">input</text>
</g>
<!-- i&#45;&gt;x3 -->
<g id="edge1" class="edge"><title>i&#45;&gt;x3</title>
<path fill="none" stroke="black" d="M54.195,-142C62.6538,-142 72.0513,-142 80.5951,-142"/>
<polygon fill="black" stroke="black" points="73.0001,-145.5 83,-142 72.9999,-138.5 73.0001,-145.5"/>
</g>
</g>
</svg>
