<?xml version="1.0" encoding="UTF-8" standalone="no"?>
<!DOCTYPE svg PUBLIC "-//W3C//DTD SVG 1.1//EN"
 "http://www.w3.org/Graphics/SVG/1.1/DTD/svg11.dtd">
<!-- Generated by graphviz version 2.38.0 (20140413.2041)
 -->
<!-- Title: G Pages: 1 -->
<svg width="527pt" height="292pt"
 viewBox="0.00 0.00 526.61 292.00" xmlns="http://www.w3.org/2000/svg" xmlns:xlink="http://www.w3.org/1999/xlink">
<g id="graph0" class="graph" transform="scale(1 1) rotate(0) translate(4 288)">
<title>G</title>
<polygon fill="white" stroke="none" points="-4,4 -4,-288 522.614,-288 522.614,4 -4,4"/>
<g id="clust1" class="cluster"><title>cluster_0</title>
<polygon fill="none" stroke="black" points="8,-8 8,-276 60,-276 60,-8 8,-8"/>
</g>
<g id="clust2" class="cluster"><title>cluster_1</title>
<polygon fill="none" stroke="black" points="109.538,-62 109.538,-222 161.538,-222 161.538,-62 109.538,-62"/>
</g>
<g id="clust3" class="cluster"><title>cluster_1_d</title>
<polygon fill="none" stroke="black" points="182.538,-62 182.538,-222 234.538,-222 234.538,-62 182.538,-62"/>
</g>
<g id="clust4" class="cluster"><title>cluster_2</title>
<polygon fill="none" stroke="black" points="284.076,-62 284.076,-222 336.076,-222 336.076,-62 284.076,-62"/>
</g>
<g id="clust5" class="cluster"><title>cluster_2_d</title>
<polygon fill="none" stroke="black" points="357.076,-62 357.076,-222 409.076,-222 409.076,-62 357.076,-62"/>
</g>
<g id="clust6" class="cluster"><title>cluster_3</title>
<polygon fill="none" stroke="black" points="458.614,-62 458.614,-222 510.614,-222 510.614,-62 458.614,-62"/>
</g>
<!-- x1 -->
<g id="node1" class="node"><title>x1</title>
<ellipse fill="none" stroke="black" cx="34" cy="-250" rx="18" ry="18"/>
</g>
<!-- x2 -->
<g id="node2" class="node"><title>x2</title>
<ellipse fill="none" stroke="black" cx="34" cy="-196" rx="18" ry="18"/>
</g>
<!-- x3 -->
<g id="node3" class="node"><title>x3</title>
<ellipse fill="none" stroke="black" cx="34" cy="-142" rx="18" ry="18"/>
</g>
<!-- u1_2 -->
<g id="node7" class="node"><title>u1_2</title>
<ellipse fill="none" stroke="black" cx="135.538" cy="-142" rx="18" ry="18"/>
</g>
<!-- x3&#45;&gt;u1_2 -->
<g id="edge1" class="edge"><title>x3&#45;&gt;u1_2</title>
<path fill="none" stroke="black" d="M59.904,-142C74.2943,-142 92.417,-142 107.201,-142"/>
<polygon fill="black" stroke="black" points="99.5382,-145.5 109.538,-142 99.5379,-138.5 99.5382,-145.5"/>
<text text-anchor="middle" x="84.769" y="-144.8" font-family="Times,serif" font-size="14.00">W(1)</text>
</g>
<!-- x4 -->
<g id="node4" class="node"><title>x4</title>
<ellipse fill="none" stroke="black" cx="34" cy="-88" rx="18" ry="18"/>
</g>
<!-- x5 -->
<g id="node5" class="node"><title>x5</title>
<ellipse fill="none" stroke="black" cx="34" cy="-34" rx="18" ry="18"/>
</g>
<!-- u1_1 -->
<g id="node6" class="node"><title>u1_1</title>
<ellipse fill="none" stroke="black" cx="135.538" cy="-196" rx="18" ry="18"/>
</g>
<!-- u1_2_d -->
<g id="node10" class="node"><title>u1_2_d</title>
<ellipse fill="none" stroke="black" cx="208.538" cy="-142" rx="18" ry="18"/>
</g>
<!-- u1_2&#45;&gt;u1_2_d -->
<!-- u1_3 -->
<g id="node8" class="node"><title>u1_3</title>
<ellipse fill="none" stroke="black" cx="135.538" cy="-88" rx="18" ry="18"/>
</g>
<!-- u1_1_d -->
<g id="node9" class="node"><title>u1_1_d</title>
<ellipse fill="none" stroke="black" cx="208.538" cy="-196" rx="18" ry="18"/>
</g>
<!-- u2_2 -->
<g id="node13" class="node"><title>u2_2</title>
<ellipse fill="none" stroke="black" cx="310.076" cy="-142" rx="18" ry="18"/>
</g>
<!-- u1_2_d&#45;&gt;u2_2 -->
<g id="edge2" class="edge"><title>u1_2_d&#45;&gt;u2_2</title>
<path fill="none" stroke="black" d="M234.442,-142C248.832,-142 266.955,-142 281.739,-142"/>
<polygon fill="black" stroke="black" points="274.076,-145.5 284.076,-142 274.076,-138.5 274.076,-145.5"/>
<text text-anchor="middle" x="259.307" y="-144.8" font-family="Times,serif" font-size="14.00">W(2)</text>
</g>
<!-- u1_3_d -->
<g id="node11" class="node"><title>u1_3_d</title>
<ellipse fill="none" stroke="black" cx="208.538" cy="-88" rx="18" ry="18"/>
</g>
<!-- u2_1 -->
<g id="node12" class="node"><title>u2_1</title>
<ellipse fill="none" stroke="black" cx="310.076" cy="-196" rx="18" ry="18"/>
</g>
<!-- u2_2_d -->
<g id="node16" class="node"><title>u2_2_d</title>
<ellipse fill="none" stroke="black" cx="383.076" cy="-142" rx="18" ry="18"/>
</g>
<!-- u2_2&#45;&gt;u2_2_d -->
<!-- u2_3 -->
<g id="node14" class="node"><title>u2_3</title>
<ellipse fill="none" stroke="black" cx="310.076" cy="-88" rx="18" ry="18"/>
</g>
<!-- u2_1_d -->
<g id="node15" class="node"><title>u2_1_d</title>
<ellipse fill="none" stroke="black" cx="383.076" cy="-196" rx="18" ry="18"/>
</g>
<!-- u3_2 -->
<g id="node19" class="node"><title>u3_2</title>
<ellipse fill="none" stroke="black" cx="484.614" cy="-142" rx="18" ry="18"/>
</g>
<!-- u2_2_d&#45;&gt;u3_2 -->
<g id="edge3" class="edge"><title>u2_2_d&#45;&gt;u3_2</title>
<path fill="none" stroke="black" d="M408.98,-142C423.37,-142 441.493,-142 456.277,-142"/>
<polygon fill="black" stroke="black" points="448.614,-145.5 458.614,-142 448.614,-138.5 448.614,-145.5"/>
<text text-anchor="middle" x="433.845" y="-144.8" font-family="Times,serif" font-size="14.00">W(3)</text>
</g>
<!-- u2_3_d -->
<g id="node17" class="node"><title>u2_3_d</title>
<ellipse fill="none" stroke="black" cx="383.076" cy="-88" rx="18" ry="18"/>
</g>
<!-- u3_1 -->
<g id="node18" class="node"><title>u3_1</title>
<ellipse fill="none" stroke="black" cx="484.614" cy="-196" rx="18" ry="18"/>
</g>
<!-- u3_3 -->
<g id="node20" class="node"><title>u3_3</title>
<ellipse fill="none" stroke="black" cx="484.614" cy="-88" rx="18" ry="18"/>
</g>
</g>
</svg>
